<?xml version="1.0" encoding="utf-8"?>
<!-- Generator: Adobe Illustrator 28.0.0, SVG Export Plug-In . SVG Version: 6.00 Build 0)  -->
<svg version="1.1" id="Layer_1" xmlns="http://www.w3.org/2000/svg" xmlns:xlink="http://www.w3.org/1999/xlink" x="0px" y="0px"
	 viewBox="0 0 48 48" style="enable-background:new 0 0 48 48;" xml:space="preserve">
<path d="M24,45c-2.6,0-5.1-0.5-7.4-1.5s-4.3-2.4-6-4.1c-1.7-1.7-3.1-3.7-4.1-6S5,28.6,5,26s0.5-5.1,1.5-7.4s2.4-4.3,4.1-6
	s3.7-3.1,6-4.1S21.4,7,24,7V2l8,8l-8,8v-5c-3.6,0-6.7,1.3-9.2,3.8S11,22.4,11,26c0,2.2,0.5,4.2,1.5,6.1c1,1.9,2.4,3.4,4.1,4.6
	c0.5-0.9,1.3-1.7,2.4-2.4s2.3-1.1,3.6-1.2c-0.1-0.7-0.2-1.4-0.4-2.1c-0.2-0.7-0.4-1.4-0.6-1.9c-0.4,0.3-0.8,0.5-1.2,0.7
	C20,29.9,19.5,30,19,30c-1.1,0-2-0.4-2.8-1.2C15.4,28,15,27.1,15,26v-2c0-0.6-0.1-1.1-0.3-1.6c-0.2-0.5-0.4-1-0.7-1.4
	c1.7,0,3.1,0.1,4.5,0.5c1.1,0.3,2.2,0.8,3.1,1.5c0.9,0.7,1.4,1.7,1.4,3.1c0,0.3,0,0.6-0.1,0.8c-0.1,0.2-0.1,0.5-0.3,0.8
	c-0.4-0.3-0.9-0.6-1.3-0.9c-0.4-0.3-0.9-0.5-1.4-0.7c0.6,0.4,1.2,1.1,2,2c0.7,0.9,1.4,2,2,3.2c0.7-1.6,1.5-3.2,2.5-4.8
	s2.2-3,3.5-4.4c-0.8,0.5-1.5,1.1-2.2,1.7c-0.7,0.6-1.4,1.2-2.1,1.9c-0.2-0.4-0.4-0.8-0.5-1.2C25.1,23.9,25,23.5,25,23
	c0-1.4,0.5-2.6,1.5-3.5c1-1,2.1-1.5,3.5-1.5h2c0.8,0,1.4-0.1,1.9-0.3c0.5-0.2,0.9-0.4,1.2-0.7c0.4-0.3,0.6-0.6,0.8-1
	c0.1,2.2,0,4.2-0.3,6c-0.3,1.5-0.9,2.9-1.7,4.1S31.8,28,30,28c-0.5,0-1-0.1-1.4-0.2c-0.5-0.1-0.9-0.3-1.2-0.6
	c-0.2,0.6-0.5,1.5-0.8,2.5c-0.3,1.1-0.5,2.2-0.7,3.4c1.3,0.2,2.4,0.7,3.4,1.3s1.7,1.4,2.2,2.2c1.7-1.2,3.1-2.7,4.1-4.5
	c1-1.9,1.5-3.9,1.5-6.2h6c0,2.6-0.5,5.1-1.5,7.4s-2.4,4.3-4.1,6c-1.7,1.7-3.7,3.1-6,4.1S26.6,45,24,45z"/>
</svg>
