<?xml version="1.0" encoding="utf-8"?>
<!-- Generator: Adobe Illustrator 28.0.0, SVG Export Plug-In . SVG Version: 6.00 Build 0)  -->
<svg version="1.1" id="Layer_1" xmlns="http://www.w3.org/2000/svg" xmlns:xlink="http://www.w3.org/1999/xlink" x="0px" y="0px"
	 viewBox="0 0 40 40" style="enable-background:new 0 0 40 40;" xml:space="preserve">
<style type="text/css">
	.st0{fill:#FFFFFF;}
</style>
<path class="st0" d="M20,27.3l7.3-7.3L20,12.7l-2.1,2.1l3.7,3.7h-9.1v3h9.1l-3.7,3.7L20,27.3z M20,40c-2.7,0-5.3-0.5-7.8-1.6
	c-2.4-1-4.6-2.5-6.4-4.3s-3.2-3.9-4.3-6.4S0,22.7,0,20c0-2.8,0.5-5.4,1.6-7.8s2.5-4.6,4.3-6.4s3.9-3.2,6.4-4.3S17.3,0,20,0
	c2.8,0,5.4,0.5,7.8,1.6s4.6,2.5,6.4,4.3s3.2,3.9,4.3,6.4c1.1,2.4,1.6,5,1.6,7.8c0,2.7-0.5,5.3-1.6,7.8c-1,2.4-2.5,4.6-4.3,6.4
	s-3.9,3.2-6.4,4.3C25.4,39.5,22.8,40,20,40z M20,37c4.7,0,8.8-1.7,12-5c3.3-3.3,5-7.3,5-12s-1.6-8.8-5-12.1C28.8,4.6,24.7,3,20,3
	S11.3,4.6,8,7.9S3,15.3,3,20s1.7,8.7,5,12S15.3,37,20,37z"/>
</svg>
