<?xml version="1.0" encoding="utf-8"?>
<!-- Generator: Adobe Illustrator 28.0.0, SVG Export Plug-In . SVG Version: 6.00 Build 0)  -->
<svg version="1.1" id="Layer_1" xmlns="http://www.w3.org/2000/svg" xmlns:xlink="http://www.w3.org/1999/xlink" x="0px" y="0px"
	 viewBox="0 0 16 20" style="enable-background:new 0 0 16 20;" xml:space="preserve">
<style type="text/css">
	.st0{fill:#FFFFFF;}
</style>
<path class="st0" d="M2,20c-0.5,0-1-0.2-1.4-0.6S0,18.5,0,18V6c0-0.6,0.2-1,0.6-1.4S1.5,4,2,4h2c0-1.1,0.4-2,1.2-2.8S6.9,0,8,0
	s2,0.4,2.8,1.2S12,2.9,12,4h2c0.6,0,1,0.2,1.4,0.6S16,5.4,16,6v12c0,0.5-0.2,1-0.6,1.4S14.6,20,14,20H2z M2,18h12V6h-2v2
	c0,0.3-0.1,0.5-0.3,0.7S11.3,9,11,9s-0.5-0.1-0.7-0.3S10,8.3,10,8V6H6v2c0,0.3-0.1,0.5-0.3,0.7S5.3,9,5,9S4.5,8.9,4.3,8.7S4,8.3,4,8
	V6H2V18z M6,4h4c0-0.5-0.2-1-0.6-1.4C9,2.2,8.6,2,8,2S7,2.2,6.6,2.6C6.2,3,6,3.4,6,4z M2,18V6V18z"/>
</svg>
