<?xml version="1.0" encoding="utf-8"?>
<!-- Generator: Adobe Illustrator 27.9.0, SVG Export Plug-In . SVG Version: 6.00 Build 0)  -->
<svg version="1.1" id="Layer_1" xmlns="http://www.w3.org/2000/svg" xmlns:xlink="http://www.w3.org/1999/xlink" x="0px" y="0px"
	 viewBox="0 0 24 24" style="enable-background:new 0 0 24 24;" xml:space="preserve">
<style type="text/css">
	.st0{fill:#FFFFFF;}
</style>
<path class="st0" d="M6,22c-0.5,0-1-0.2-1.4-0.6S4,20.5,4,20V8c0-0.6,0.2-1,0.6-1.4C5,6.2,5.5,6,6,6h2c0-1.1,0.4-2,1.2-2.8
	S10.9,2,12,2s2,0.4,2.8,1.2S16,4.9,16,6h2c0.6,0,1,0.2,1.4,0.6C19.8,7,20,7.4,20,8v12c0,0.5-0.2,1-0.6,1.4S18.6,22,18,22H6z M6,20
	h12V8h-2v2c0,0.3-0.1,0.5-0.3,0.7C15.5,10.9,15.3,11,15,11s-0.5-0.1-0.7-0.3C14.1,10.5,14,10.3,14,10V8h-4v2c0,0.3-0.1,0.5-0.3,0.7
	C9.5,10.9,9.3,11,9,11s-0.5-0.1-0.7-0.3C8.1,10.5,8,10.3,8,10V8H6V20z M10,6h4c0-0.5-0.2-1-0.6-1.4C13,4.2,12.6,4,12,4
	s-1,0.2-1.4,0.6C10.2,5,10,5.4,10,6z M6,20V8V20z"/>
</svg>
